{
  "asset": {
    "version": "2.0",
    "generator": "THREE.GLTFExporter r168"
  },
  "scenes": [
    {
      "name": "Scene",
      "nodes": [
        1,
        2
      ]
    }
  ],
  "scene": 0,
  "nodes": [
    {
      "matrix": [
        0.4000000059604645,
        0,
        0,
        0,
        0,
        0.4000000059604645,
        0,
        0,
        0,
        0,
        0.4000000059604645,
        0,
        0,
        4,
        0,
        1
      ],
      "name": "Sphere003",
      "extras": {
        "name": "Sphere.003"
      },
      "mesh": 0
    },
    {
      "name": "JarronDorado.glb",
      "children": [
        0
      ]
    },
    {
      "matrix": [
        1,
        0,
        0,
        0,
        0,
        1,
        0,
        0,
        0,
        0,
        1,
        0,
        0,
        2.9421776644224145,
        0,
        1
      ],
      "name": "AmbientLight"
    }
  ],
  "bufferViews": [
    {
      "buffer": 0,
      "byteOffset": 0,
      "byteLength": 436524,
      "target": 34962,
      "byteStride": 12
    },
    {
      "buffer": 0,
      "byteOffset": 436524,
      "byteLength": 436524,
      "target": 34962,
      "byteStride": 12
    },
    {
      "buffer": 0,
      "byteOffset": 873048,
      "byteLength": 291016,
      "target": 34962,
      "byteStride": 8
    },
    {
      "buffer": 0,
      "byteOffset": 1164064,
      "byteLength": 109200,
      "target": 34963
    }
  ],
  "buffers": [
    {
      "byteLength": 1273264,
      "uri": "data:application/octet-stream;base64,"
    }
  ],
  "accessors": [
    {
      "bufferView": 0,
      "componentType": 5126,
      "count": 36377,
      "max": [
        2.0125365257263184,
        0.9975767135620117,
        2.1248481273651123
      ],
      "min": [
        -3.5474507808685303,
        -9.854266166687012,
        -3.4351396560668945
      ],
      "type": "VEC3"
    },
    {
      "bufferView": 1,
      "componentType": 5126,
      "count": 36377,
      "max": [
        1,
        1,
        1
      ],
      "min": [
        -1,
        -1,
        -1
      ],
      "type": "VEC3"
    },
    {
      "bufferView": 2,
      "componentType": 5126,
      "count": 36377,
      "max": [
        1.0000001192092896,
        1
      ],
      "min": [
        0,
        -1.1920928955078125e-7
      ],
      "type": "VEC2"
    },
    {
      "bufferView": 3,
      "componentType": 5123,
      "count": 54600,
      "max": [
        36376
      ],
      "min": [
        0
      ],
      "type": "SCALAR"
    }
  ],
  "materials": [
    {
      "pbrMetallicRoughness": {
        "baseColorFactor": [
          0.462074339389801,
          0.2961386442184448,
          0.005181592423468828,
          1
        ],
        "metallicFactor": 0.800000011920929,
        "roughnessFactor": 0.5
      },
      "doubleSided": true,
      "name": "Material.020"
    }
  ],
  "meshes": [
    {
      "primitives": [
        {
          "mode": 4,
          "attributes": {
            "POSITION": 0,
            "NORMAL": 1,
            "TEXCOORD_0": 2
          },
          "indices": 3,
          "material": 0
        }
      ]
    }
  ]
}